<?xml version="1.0" standalone="no"?>
<!DOCTYPE svg PUBLIC "-//W3C//DTD SVG 20010904//EN"
 "http://www.w3.org/TR/2001/REC-SVG-20010904/DTD/svg10.dtd">
<svg version="1.0" xmlns="http://www.w3.org/2000/svg"
 width="200.000000pt" height="272.000000pt" viewBox="0 0 200.000000 272.000000"
 preserveAspectRatio="xMidYMid meet">
<g transform="translate(0.000000,272.000000) scale(0.100000,-0.100000)"
fill="#FFFFFF" stroke="none">
<path d="M1070 2635 c-8 -2 -32 -6 -53 -10 -48 -8 -77 -36 -77 -75 0 -60 21
-68 181 -68 275 -2 400 -58 641 -289 52 -49 96 -83 108 -83 30 0 70 44 70 76
0 20 -22 50 -92 121 -51 52 -120 115 -153 140 -83 63 -244 139 -345 163 -80
19 -246 34 -280 25z"/>
<path d="M565 2389 c-89 -48 -315 -252 -384 -348 -36 -51 -39 -83 -11 -111 34
-34 73 -26 117 23 88 98 204 208 296 281 80 63 97 82 97 104 0 33 -8 45 -37
61 -29 15 -32 14 -78 -10z"/>
<path d="M933 2320 c-40 -10 -82 -24 -93 -30 -31 -16 -43 -56 -28 -88 22 -44
39 -48 120 -28 331 82 570 -34 839 -408 76 -105 103 -122 147 -89 46 34 41 66
-29 171 -70 106 -230 278 -322 348 -75 57 -183 109 -269 129 -91 21 -274 19
-365 -5z"/>
<path d="M578 2075 c-98 -85 -245 -251 -310 -349 -99 -150 -147 -270 -169
-418 -21 -148 6 -395 48 -425 27 -20 73 -12 94 17 16 23 16 31 4 105 -58 338
40 583 360 900 67 66 124 128 128 138 10 27 -12 65 -46 77 -42 14 -39 16 -109
-45z"/>
<path d="M1004 2046 c-253 -58 -555 -365 -646 -656 -20 -66 -23 -94 -22 -230
1 -141 3 -163 29 -240 81 -250 234 -430 450 -532 80 -37 132 -36 154 3 28 50
10 73 -100 130 -198 102 -327 266 -379 481 -37 155 -24 309 39 443 63 135 239
328 370 405 90 53 131 63 242 59 81 -4 103 -8 163 -37 37 -17 81 -32 96 -32
35 0 60 28 60 68 0 26 -8 36 -45 62 -107 74 -280 106 -411 76z"/>
<path d="M1563 1769 c-24 -9 -43 -38 -43 -67 0 -11 23 -54 50 -96 118 -181
145 -262 143 -437 -1 -112 -4 -135 -31 -212 -45 -133 -105 -230 -202 -328 -92
-93 -162 -136 -260 -159 -69 -16 -90 -34 -90 -76 0 -66 45 -83 143 -54 144 43
277 143 389 290 63 82 141 241 169 345 33 117 33 320 0 425 -49 159 -168 350
-231 372 -8 3 -25 2 -37 -3z"/>
<path d="M1001 1749 c-45 -49 -6 -119 66 -119 56 0 152 -27 193 -54 122 -81
210 -244 210 -391 0 -77 18 -105 66 -105 54 0 74 28 74 103 0 101 -18 175 -67
277 -60 123 -142 209 -257 265 -70 35 -88 40 -171 43 -86 4 -94 3 -114 -19z"/>
<path d="M755 1587 c-123 -130 -174 -252 -175 -415 0 -179 60 -322 189 -453
159 -159 381 -214 381 -93 0 38 -20 62 -58 70 -148 31 -253 115 -321 256 -48
98 -63 188 -50 286 12 87 51 160 131 248 50 55 68 82 68 103 0 37 -28 61 -71
61 -28 0 -43 -10 -94 -63z"/>
<path d="M1003 1461 c-57 -26 -120 -92 -152 -160 -22 -48 -26 -69 -26 -146 1
-78 5 -98 29 -148 70 -145 251 -252 316 -187 25 25 26 72 1 94 -10 9 -35 22
-56 27 -47 13 -113 73 -136 124 -39 85 -13 198 57 252 30 22 41 25 84 20 39
-5 54 -2 74 14 36 28 36 80 0 108 -35 28 -132 28 -191 2z"/>
<path d="M1264 1128 c-54 -25 -55 -98 -3 -127 35 -19 83 -1 99 39 14 33 3 60
-32 84 -26 18 -35 19 -64 4z"/>
<path d="M1421 920 c-20 -23 -66 -74 -103 -114 -58 -62 -68 -78 -68 -109 0
-26 6 -40 22 -51 45 -32 71 -21 150 63 127 135 148 206 69 238 -33 14 -34 14
-70 -27z"/>
<path d="M253 728 c-12 -6 -27 -23 -33 -38 -10 -24 -7 -36 18 -86 91 -181 290
-361 487 -443 120 -50 218 -72 351 -78 114 -5 122 -5 143 16 26 26 27 71 2 98
-16 17 -36 21 -137 26 -139 7 -231 30 -342 86 -151 76 -281 196 -369 340 -58
96 -69 104 -120 79z"/>
<path d="M1686 501 c-70 -85 -145 -147 -241 -201 -80 -44 -95 -58 -95 -90 0
-32 37 -70 69 -70 29 0 103 37 178 89 60 40 152 131 216 212 59 73 45 139 -28
139 -29 0 -41 -9 -99 -79z"/>
</g>
</svg>

